<?xml version="1.0" encoding="UTF-8"?>
<svg width="700pt" height="700pt" version="1.1" viewBox="0 0 700 700" xmlns="http://www.w3.org/2000/svg" xmlns:xlink="http://www.w3.org/1999/xlink">
 <defs>
  <symbol id="o" overflow="visible">
   <path d="m29.312-1.75c-1.5117 0.78125-3.0898 1.3711-4.7344 1.7656-1.6367 0.40625-3.3398 0.60938-5.1094 0.60938-5.3125 0-9.5273-1.4844-12.641-4.4531-3.1055-2.9688-4.6562-7-4.6562-12.094s1.5508-9.125 4.6562-12.094c3.1133-2.9688 7.3281-4.4531 12.641-4.4531 1.7695 0 3.4727 0.19922 5.1094 0.59375 1.6445 0.39844 3.2227 0.99219 4.7344 1.7812v6.5938c-1.5312-1.0391-3.0391-1.8008-4.5156-2.2812-1.4805-0.48828-3.0391-0.73438-4.6719-0.73438-2.9375 0-5.2461 0.94531-6.9219 2.8281-1.6797 1.875-2.5156 4.4648-2.5156 7.7656 0 3.293 0.83594 5.8828 2.5156 7.7656 1.6758 1.875 3.9844 2.8125 6.9219 2.8125 1.6328 0 3.1914-0.23828 4.6719-0.71875 1.4766-0.48828 2.9844-1.2539 4.5156-2.2969z"/>
  </symbol>
  <symbol id="h" overflow="visible">
   <path d="m21.453-17.406c-0.67969-0.3125-1.3516-0.53906-2.0156-0.6875-0.65625-0.15625-1.3203-0.23438-1.9844-0.23438-1.9688 0-3.4844 0.63281-4.5469 1.8906-1.0547 1.2617-1.5781 3.0703-1.5781 5.4219v11.016h-7.6562v-23.922h7.6562v3.9219c0.97656-1.5625 2.1016-2.7031 3.375-3.4219 1.2812-0.71875 2.8125-1.0781 4.5938-1.0781 0.25 0 0.52344 0.011719 0.82812 0.03125 0.30078 0.023438 0.73438 0.070312 1.2969 0.14062z"/>
  </symbol>
  <symbol id="b" overflow="visible">
   <path d="m27.562-12.031v2.1875h-17.891c0.1875 1.793 0.83203 3.1367 1.9375 4.0312 1.1133 0.89844 2.6719 1.3438 4.6719 1.3438 1.6016 0 3.25-0.23438 4.9375-0.70312 1.6875-0.47656 3.4219-1.2031 5.2031-2.1719v5.8906c-1.8047 0.6875-3.6094 1.2031-5.4219 1.5469-1.8125 0.35156-3.6211 0.53125-5.4219 0.53125-4.3359 0-7.7031-1.0977-10.109-3.2969-2.3984-2.207-3.5938-5.2969-3.5938-9.2656 0-3.9062 1.1758-6.9727 3.5312-9.2031 2.3633-2.2383 5.6094-3.3594 9.7344-3.3594 3.7578 0 6.7695 1.1367 9.0312 3.4062 2.2578 2.2617 3.3906 5.2812 3.3906 9.0625zm-7.8594-2.5312c0-1.457-0.42969-2.6289-1.2812-3.5156-0.84375-0.89453-1.9492-1.3438-3.3125-1.3438-1.4922 0-2.6992 0.41797-3.625 1.25-0.91797 0.83594-1.4922 2.0391-1.7188 3.6094z"/>
  </symbol>
  <symbol id="d" overflow="visible">
   <path d="m14.391-10.766c-1.5938 0-2.793 0.27344-3.5938 0.8125-0.80469 0.54297-1.2031 1.3398-1.2031 2.3906 0 0.96875 0.32031 1.7305 0.96875 2.2812 0.64453 0.54297 1.5469 0.8125 2.7031 0.8125 1.4375 0 2.6445-0.51562 3.625-1.5469 0.98828-1.0312 1.4844-2.3203 1.4844-3.875v-0.875zm11.688-2.8906v13.656h-7.7031v-3.5469c-1.0312 1.4492-2.1875 2.5078-3.4688 3.1719s-2.8398 1-4.6719 1c-2.4805 0-4.4961-0.72266-6.0469-2.1719-1.543-1.4453-2.3125-3.3203-2.3125-5.625 0-2.8125 0.96094-4.8672 2.8906-6.1719 1.9375-1.3125 4.9688-1.9688 9.0938-1.9688h4.5156v-0.60938c0-1.207-0.48047-2.0938-1.4375-2.6562-0.94922-0.5625-2.4375-0.84375-4.4688-0.84375-1.6367 0-3.1562 0.16797-4.5625 0.5-1.4062 0.32422-2.7188 0.8125-3.9375 1.4688v-5.8281c1.6445-0.40625 3.2891-0.70703 4.9375-0.90625 1.6562-0.20703 3.3047-0.3125 4.9531-0.3125 4.3203 0 7.4375 0.85547 9.3438 2.5625 1.9141 1.6992 2.875 4.4609 2.875 8.2812z"/>
  </symbol>
  <symbol id="a" overflow="visible">
   <path d="m12.031-30.719v6.7969h7.875v5.4688h-7.875v10.141c0 1.1172 0.21875 1.8711 0.65625 2.2656 0.4375 0.38672 1.3125 0.57812 2.625 0.57812h3.9375v5.4688h-6.5625c-3.0234 0-5.1641-0.62891-6.4219-1.8906-1.2617-1.2578-1.8906-3.3984-1.8906-6.4219v-10.141h-3.7969v-5.4688h3.7969v-6.7969z"/>
  </symbol>
  <symbol id="g" overflow="visible">
   <path d="m19.953-20.422v-12.812h7.6875v33.234h-7.6875v-3.4531c-1.0547 1.4062-2.2148 2.4375-3.4844 3.0938-1.2734 0.65625-2.7422 0.98438-4.4062 0.98438-2.9492 0-5.3711-1.1719-7.2656-3.5156-1.8867-2.3438-2.8281-5.3594-2.8281-9.0469s0.94141-6.7031 2.8281-9.0469c1.8945-2.3438 4.3164-3.5156 7.2656-3.5156 1.6562 0 3.1172 0.33594 4.3906 1 1.2812 0.65625 2.4453 1.6836 3.5 3.0781zm-5.0469 15.484c1.6445 0 2.8945-0.59766 3.75-1.7969 0.86328-1.1953 1.2969-2.9297 1.2969-5.2031 0-2.2812-0.43359-4.0195-1.2969-5.2188-0.85547-1.1953-2.1055-1.7969-3.75-1.7969-1.625 0-2.8711 0.60156-3.7344 1.7969-0.85547 1.1992-1.2812 2.9375-1.2812 5.2188 0 2.2734 0.42578 4.0078 1.2812 5.2031 0.86328 1.1992 2.1094 1.7969 3.7344 1.7969z"/>
  </symbol>
  <symbol id="f" overflow="visible">
   <path d="m16.406-4.9375c1.6328 0 2.8828-0.59766 3.75-1.7969 0.86328-1.1953 1.2969-2.9297 1.2969-5.2031 0-2.2812-0.43359-4.0195-1.2969-5.2188-0.86719-1.1953-2.1172-1.7969-3.75-1.7969-1.6367 0-2.8906 0.60547-3.7656 1.8125-0.875 1.1992-1.3125 2.9336-1.3125 5.2031 0 2.2617 0.4375 3.9961 1.3125 5.2031 0.875 1.1992 2.1289 1.7969 3.7656 1.7969zm-5.0781-15.484c1.0508-1.3945 2.2188-2.4219 3.5-3.0781 1.2812-0.66406 2.7539-1 4.4219-1 2.9453 0 5.3672 1.1719 7.2656 3.5156 1.8945 2.3438 2.8438 5.3594 2.8438 9.0469s-0.94922 6.7031-2.8438 9.0469c-1.8984 2.3438-4.3203 3.5156-7.2656 3.5156-1.668 0-3.1406-0.33594-4.4219-1s-2.4492-1.6914-3.5-3.0781v3.4531h-7.6562v-33.234h7.6562z"/>
  </symbol>
  <symbol id="e" overflow="visible">
   <path d="m0.53125-23.922h7.6562l6.4219 16.234 5.4688-16.234h7.6562l-10.062 26.188c-1.0117 2.6641-2.1953 4.5234-3.5469 5.5781-1.3438 1.0625-3.1211 1.5938-5.3281 1.5938h-4.4219v-5.0156h2.3906c1.3008 0 2.2422-0.21094 2.8281-0.625 0.59375-0.40625 1.0547-1.1484 1.3906-2.2188l0.20312-0.65625z"/>
  </symbol>
  <symbol id="c" overflow="visible">
   <path d="m26.219-30.891v6.75c-1.7617-0.78125-3.4766-1.3672-5.1406-1.7656-1.668-0.40625-3.2422-0.60938-4.7188-0.60938-1.9609 0-3.4141 0.27344-4.3594 0.8125-0.9375 0.54297-1.4062 1.3867-1.4062 2.5312 0 0.85547 0.31641 1.5234 0.95312 2 0.63281 0.46875 1.7852 0.875 3.4531 1.2188l3.5 0.70312c3.5391 0.71875 6.0625 1.8047 7.5625 3.25 1.5 1.4492 2.25 3.5117 2.25 6.1875 0 3.5234-1.0469 6.1406-3.1406 7.8594-2.0859 1.7188-5.2734 2.5781-9.5625 2.5781-2.0234 0-4.0547-0.19531-6.0938-0.57812-2.0312-0.38281-4.0625-0.95703-6.0938-1.7188v-6.9375c2.0312 1.0859 3.9922 1.9023 5.8906 2.4531 1.9062 0.54297 3.7422 0.8125 5.5156 0.8125 1.7891 0 3.1602-0.29688 4.1094-0.89062 0.95703-0.60156 1.4375-1.457 1.4375-2.5625 0-1-0.32422-1.7695-0.96875-2.3125-0.64844-0.53906-1.9375-1.0234-3.875-1.4531l-3.1875-0.70312c-3.1875-0.6875-5.5234-1.7734-7-3.2656-1.4688-1.5-2.2031-3.5156-2.2031-6.0469 0-3.1758 1.0234-5.6172 3.0781-7.3281 2.0508-1.707 5-2.5625 8.8438-2.5625 1.75 0 3.5508 0.13281 5.4062 0.39062 1.8516 0.26172 3.7695 0.65625 5.75 1.1875z"/>
  </symbol>
  <symbol id="n" overflow="visible">
   <path d="m3.4219-9.3125v-14.609h7.6875v2.3906c0 1.293-0.011719 2.918-0.03125 4.875-0.011719 1.9609-0.015625 3.2656-0.015625 3.9219 0 1.9297 0.046875 3.3125 0.14062 4.1562 0.10156 0.84375 0.28125 1.4609 0.53125 1.8438 0.3125 0.5 0.71875 0.88672 1.2188 1.1562 0.50781 0.27344 1.0938 0.40625 1.75 0.40625 1.5938 0 2.8438-0.60938 3.75-1.8281 0.91406-1.2266 1.375-2.9297 1.375-5.1094v-11.812h7.6406v23.922h-7.6406v-3.4531c-1.1562 1.3867-2.3828 2.4141-3.6719 3.0781-1.2812 0.66406-2.6992 1-4.25 1-2.7734 0-4.8828-0.84766-6.3281-2.5469-1.4375-1.6953-2.1562-4.1602-2.1562-7.3906z"/>
  </symbol>
  <symbol id="m" overflow="visible">
   <path d="m25.844-19.953c0.96875-1.4766 2.1172-2.6016 3.4531-3.375 1.332-0.78125 2.7969-1.1719 4.3906-1.1719 2.75 0 4.8438 0.85156 6.2812 2.5469 1.4375 1.6875 2.1562 4.1523 2.1562 7.3906v14.562h-7.6875v-12.469c0.007812-0.1875 0.019531-0.37891 0.03125-0.57812 0.007812-0.19531 0.015625-0.48438 0.015625-0.85938 0-1.6953-0.25-2.9258-0.75-3.6875-0.5-0.75781-1.3086-1.1406-2.4219-1.1406-1.4492 0-2.5703 0.60156-3.3594 1.7969-0.79297 1.1992-1.2031 2.9297-1.2344 5.1875v11.75h-7.6875v-12.469c0-2.6562-0.23047-4.3633-0.6875-5.125-0.44922-0.75781-1.2578-1.1406-2.4219-1.1406-1.4688 0-2.6055 0.60547-3.4062 1.8125-0.79297 1.1992-1.1875 2.918-1.1875 5.1562v11.766h-7.7031v-23.922h7.7031v3.5c0.9375-1.3516 2.0156-2.3672 3.2344-3.0469 1.2188-0.6875 2.5547-1.0312 4.0156-1.0312 1.6562 0 3.1133 0.40234 4.375 1.2031 1.2695 0.79297 2.2344 1.9062 2.8906 3.3438z"/>
  </symbol>
  <symbol id="l" overflow="visible">
   <path d="m3.6719-23.922h7.6562v23.922h-7.6562zm0-9.3125h7.6562v6.2344h-7.6562z"/>
  </symbol>
  <symbol id="k" overflow="visible">
   <path d="m27.734-14.562v14.562h-7.7031v-11.156c0-2.0625-0.046875-3.4844-0.14062-4.2656-0.085937-0.78125-0.24219-1.3594-0.46875-1.7344-0.30469-0.5-0.71094-0.88281-1.2188-1.1562-0.51172-0.28125-1.0938-0.42188-1.75-0.42188-1.5938 0-2.8516 0.61719-3.7656 1.8438-0.90625 1.2305-1.3594 2.9375-1.3594 5.125v11.766h-7.6562v-23.922h7.6562v3.5c1.1445-1.3945 2.3633-2.4219 3.6562-3.0781 1.3008-0.66406 2.7383-1 4.3125-1 2.7578 0 4.8516 0.85156 6.2812 2.5469 1.4375 1.6875 2.1562 4.1523 2.1562 7.3906z"/>
  </symbol>
  <symbol id="j" overflow="visible">
   <path d="m19.953-4.0625c-1.0547 1.3984-2.2148 2.4219-3.4844 3.0781-1.2734 0.65625-2.7422 0.98438-4.4062 0.98438-2.918 0-5.3281-1.1484-7.2344-3.4531-1.9062-2.3008-2.8594-5.2266-2.8594-8.7812 0-3.582 0.95312-6.5156 2.8594-8.7969s4.3164-3.4219 7.2344-3.4219c1.6641 0 3.1328 0.32812 4.4062 0.98438 1.2695 0.64844 2.4297 1.6797 3.4844 3.0938v-3.5469h7.6875v21.516c0 3.8438-1.2148 6.7734-3.6406 8.7969-2.4297 2.0312-5.9492 3.0469-10.562 3.0469-1.5 0-2.9492-0.11719-4.3438-0.34375-1.3984-0.21875-2.7969-0.57031-4.2031-1.0469v-5.9531c1.3438 0.76953 2.6562 1.3438 3.9375 1.7188s2.5664 0.5625 3.8594 0.5625c2.5078 0 4.3477-0.54688 5.5156-1.6406 1.1641-1.0938 1.75-2.8047 1.75-5.1406zm-5.0469-14.891c-1.5742 0-2.8047 0.58984-3.6875 1.7656-0.88672 1.168-1.3281 2.8203-1.3281 4.9531 0 2.1875 0.42578 3.8516 1.2812 4.9844 0.85156 1.1367 2.0977 1.7031 3.7344 1.7031 1.5938 0 2.832-0.58203 3.7188-1.75 0.88281-1.1758 1.3281-2.8203 1.3281-4.9375 0-2.1328-0.44531-3.7852-1.3281-4.9531-0.88672-1.1758-2.125-1.7656-3.7188-1.7656z"/>
  </symbol>
  <symbol id="i" overflow="visible">
   <path d="m27.734-14.562v14.562h-7.7031v-11.109c0-2.0938-0.046875-3.5312-0.14062-4.3125-0.085937-0.78125-0.24219-1.3594-0.46875-1.7344-0.30469-0.5-0.71094-0.88281-1.2188-1.1562-0.51172-0.28125-1.0938-0.42188-1.75-0.42188-1.5938 0-2.8516 0.61719-3.7656 1.8438-0.90625 1.2305-1.3594 2.9375-1.3594 5.125v11.766h-7.6562v-33.234h7.6562v12.812c1.1445-1.3945 2.3633-2.4219 3.6562-3.0781 1.3008-0.66406 2.7383-1 4.3125-1 2.7578 0 4.8516 0.85156 6.2812 2.5469 1.4375 1.6875 2.1562 4.1523 2.1562 7.3906z"/>
  </symbol>
 </defs>
 <g>
  <path d="m183.75 62.344v-9.8438h-17.5v9.8438c-5.0352 1.457-9.4609 4.5078-12.613 8.6914-3.1562 4.1875-4.8711 9.2812-4.8867 14.523v3.8867-0.003906c0.007812 6.4453 2.5703 12.625 7.1289 17.18 4.5547 4.5586 10.734 7.1211 17.18 7.1289h3.8867-0.003906c3.7578 0.003906 6.8047 3.0508 6.8086 6.8086v3.8867-0.003906c-0.003906 3.7578-3.0508 6.8047-6.8086 6.8086h-3.8867 0.003906c-3.7578-0.003906-6.8047-3.0508-6.8086-6.8086h-17.5c0.015625 5.2422 1.7305 10.336 4.8867 14.523 3.1523 4.1836 7.5781 7.2344 12.613 8.6914v9.8438h17.5v-9.8438c5.0352-1.457 9.4609-4.5078 12.613-8.6914 3.1562-4.1875 4.8711-9.2812 4.8867-14.523v-3.8867 0.003906c-0.007812-6.4453-2.5703-12.625-7.1289-17.18-4.5547-4.5586-10.734-7.1211-17.18-7.1289h-3.8867 0.003906c-3.7578-0.003906-6.8047-3.0508-6.8086-6.8086v-3.8828c0.003906-3.7578 3.0508-6.8047 6.8086-6.8086h3.8867-0.003906c3.7578 0.003906 6.8047 3.0508 6.8086 6.8086v1.9414h17.5v-1.9414c-0.015625-5.2422-1.7305-10.336-4.8867-14.523-3.1523-4.1836-7.5781-7.2344-12.613-8.6914z"/>
  <path d="m603.75 52.5h-35v-26.25c0-2.3203-0.92188-4.5469-2.5625-6.1875s-3.8672-2.5625-6.1875-2.5625h-70c-4.832 0-8.75 3.918-8.75 8.75v26.25h-35c-4.832 0-8.75 3.918-8.75 8.75v75.129l-40.25 40.25c-12.145-5.5664-25.18-8.9297-38.5-9.9336v-62.57c14.293-2.918 26.188-12.766 31.727-26.258 5.5352-13.496 3.9844-28.859-4.1406-40.977-8.125-12.113-21.75-19.383-36.336-19.383s-28.211 7.2695-36.336 19.383c-8.125 12.117-9.6758 27.48-4.1406 40.977 5.5391 13.492 17.434 23.34 31.727 26.258v62.578c-15.832 1.1719-31.234 5.668-45.211 13.195l-42.875-35.742c13.617-27.062 12.309-59.238-3.4648-85.105-15.77-25.867-43.77-41.766-74.062-42.059-30.297-0.29297-58.598 15.062-74.863 40.621-16.27 25.559-18.199 57.699-5.1055 85.023 13.09 27.32 39.352 45.953 69.461 49.289 30.113 3.3359 59.812-9.1016 78.566-32.895l37.09 30.906h0.003906c-25.574 19.617-41.605 49.18-44.094 81.312h-62.57c-2.918-14.293-12.766-26.188-26.258-31.727-13.496-5.5352-28.859-3.9844-40.977 4.1406-12.113 8.125-19.383 21.75-19.383 36.336s7.2695 28.211 19.383 36.336c12.117 8.125 27.48 9.6758 40.977 4.1406 13.492-5.5391 23.34-17.434 26.258-31.727h62.578c2.3477 30.77 17.117 59.262 40.906 78.918l-50.82 25.375-6.5898-5.8711h0.003906c-1.6133-1.4102-3.6875-2.1797-5.8281-2.1719h-78.75c-2.1445 0.003906-4.2109 0.78516-5.8203 2.2031l-39.375 35c-2.7188 2.4141-3.6641 6.2578-2.3711 9.6562 1.293 3.4023 4.5547 5.6445 8.1914 5.6406v96.25c0 2.3203 0.92188 4.5469 2.5625 6.1875s3.8672 2.5625 6.1875 2.5625h140c2.3203 0 4.5469-0.92188 6.1875-2.5625s2.5625-3.8672 2.5625-6.1875v-96.25c3.6367 0.003906 6.8984-2.2383 8.1914-5.6406 1.293-3.3984 0.34766-7.2422-2.3711-9.6562l-18.691-16.625 53.254-26.625c34.066 19.352 75.719 19.723 110.12 0.98047l68.242 53.094v4.4727h-37.887c-2.9258 0-5.6562 1.4609-7.2812 3.8945l-23.363 35c-0.95703 1.4375-1.4688 3.1289-1.4688 4.8555v35c0 2.3203 0.92188 4.5469 2.5625 6.1875s3.8672 2.5625 6.1875 2.5625h45.359c2.3906 6.8633 7.5352 12.418 14.195 15.328 6.6602 2.9062 14.23 2.9062 20.891 0 6.6602-2.9102 11.805-8.4648 14.195-15.328h38.219c2.3906 6.8633 7.5352 12.418 14.195 15.328 6.6602 2.9062 14.23 2.9062 20.891 0 6.6602-2.9102 11.805-8.4648 14.195-15.328h10.359c2.3203 0 4.5469-0.92188 6.1875-2.5625s2.5625-3.8672 2.5625-6.1875v-87.5c0-2.3203-0.92188-4.5469-2.5625-6.1875s-3.8672-2.5625-6.1875-2.5625h-119.5l-64.609-50.25c25.336-19.629 41.191-49.047 43.664-81h62.57c2.918 14.293 12.766 26.188 26.258 31.727 13.496 5.5352 28.859 3.9844 40.977-4.1406 12.113-8.125 19.383-21.75 19.383-36.336s-7.2695-28.211-19.383-36.336c-12.117-8.125-27.48-9.6758-40.977-4.1406-13.492 5.5391-23.34 17.434-26.258 31.727h-62.57c-2.6914-34.758-21.176-66.359-50.148-85.75l24.344-24.379v5.1289c0 2.3203 0.92188 4.5469 2.5625 6.1875s3.8672 2.5625 6.1875 2.5625h157.5c2.3203 0 4.5469-0.92188 6.1875-2.5625s2.5625-3.8672 2.5625-6.1875v-105c0-2.3203-0.92188-4.5469-2.5625-6.1875s-3.8672-2.5625-6.1875-2.5625zm-428.75 122.5c-18.566 0-36.371-7.375-49.496-20.504-13.129-13.125-20.504-30.93-20.504-49.496s7.375-36.371 20.504-49.496c13.125-13.129 30.93-20.504 49.496-20.504s36.371 7.375 49.496 20.504c13.129 13.125 20.504 30.93 20.504 49.496-0.019531 18.559-7.4023 36.352-20.527 49.473-13.121 13.125-30.914 20.508-49.473 20.527zm-43.75 131.25c-6.9609 0-13.641-2.7656-18.562-7.6875s-7.6875-11.602-7.6875-18.562 2.7656-13.641 7.6875-18.562 11.602-7.6875 18.562-7.6875 13.641 2.7656 18.562 7.6875 7.6875 11.602 7.6875 18.562-2.7656 13.641-7.6875 18.562-11.602 7.6875-18.562 7.6875zm7.6992 96.25h72.102l19.688 17.5h-111.48zm62.301 35v8.75c0 4.832-3.918 8.75-8.75 8.75s-8.75-3.918-8.75-8.75v-8.75zm-35 0v8.75c0 4.832-3.918 8.75-8.75 8.75s-8.75-3.918-8.75-8.75v-8.75zm-52.5 0h17.5v8.75c0 4.832-3.918 8.75-8.75 8.75s-8.75-3.918-8.75-8.75zm70 87.5h-17.5v-8.75c0-4.832 3.918-8.75 8.75-8.75s8.75 3.918 8.75 8.75zm52.5 0h-35v-8.75c0-9.3789-5.0039-18.043-13.125-22.734-8.1211-4.6875-18.129-4.6875-26.25 0-8.1211 4.6914-13.125 13.355-13.125 22.734v8.75h-35v-54.109c4.4297 1.6484 9.2344 2.0312 13.871 1.1055 4.6367-0.92578 8.9219-3.1289 12.379-6.3555 4.7695 4.3867 11.016 6.8242 17.5 6.8242s12.73-2.4375 17.5-6.8242c4.7695 4.3867 11.016 6.8242 17.5 6.8242s12.73-2.4375 17.5-6.8242c3.457 3.2266 7.7422 5.4297 12.379 6.3555 4.6367 0.92578 9.4414 0.54297 13.871-1.1055zm0-78.75c0 4.832-3.918 8.75-8.75 8.75s-8.75-3.918-8.75-8.75v-8.75h17.5zm220.36 61.25h-36.609v-23.625l19.25-28.875h33.25v36.609c-7.4102 2.6484-13.242 8.4805-15.891 15.891zm112.14 17.5c-3.5391 0-6.7305-2.1328-8.082-5.4023-1.3555-3.2695-0.60938-7.0312 1.8945-9.5352s6.2656-3.25 9.5352-1.8945c3.2695 1.3516 5.4023 4.543 5.4023 8.082 0 2.3203-0.92188 4.5469-2.5625 6.1875s-3.8672 2.5625-6.1875 2.5625zm-78.75-78.75v-8.75h105v70h-1.6094c-2.3906-6.8633-7.5352-12.418-14.195-15.328-6.6602-2.9062-14.23-2.9062-20.891 0-6.6602 2.9102-11.805 8.4648-14.195 15.328h-38.219c-2.6484-7.4102-8.4805-13.242-15.891-15.891zm-8.75 61.25c3.5391 0 6.7305 2.1328 8.082 5.4023 1.3555 3.2695 0.60938 7.0312-1.8945 9.5352s-6.2656 3.25-9.5352 1.8945c-3.2695-1.3516-5.4023-4.543-5.4023-8.082 0-4.832 3.918-8.75 8.75-8.75zm87.5-253.75c6.9609 0 13.641 2.7656 18.562 7.6875s7.6875 11.602 7.6875 18.562-2.7656 13.641-7.6875 18.562-11.602 7.6875-18.562 7.6875-13.641-2.7656-18.562-7.6875-7.6875-11.602-7.6875-18.562 2.7656-13.641 7.6875-18.562 11.602-7.6875 18.562-7.6875zm-245-192.5c0-6.9609 2.7656-13.641 7.6875-18.562s11.602-7.6875 18.562-7.6875 13.641 2.7656 18.562 7.6875 7.6875 11.602 7.6875 18.562-2.7656 13.641-7.6875 18.562-11.602 7.6875-18.562 7.6875-13.641-2.7656-18.562-7.6875-7.6875-11.602-7.6875-18.562zm26.25 122.5c6.3516 0 16.977 17.379 22.559 49.875-14.844 3.4492-30.273 3.4492-45.117 0 5.582-32.496 16.207-49.875 22.559-49.875zm-76.859 38.551c9.7344 10.402 21.703 18.461 35 23.574-0.91797 8.2773-1.5039 16.781-1.75 25.375h-52.195c1.625-17.766 8.1836-34.719 18.945-48.949zm0 115.39v0.003907c-10.762-14.23-17.32-31.184-18.945-48.949h52.203c0.23437 8.5938 0.82422 17.098 1.75 25.375-13.301 5.1094-25.27 13.172-35.008 23.574zm11.797 13.02-0.003906 0.003906c7.1602-8.0078 15.961-14.371 25.805-18.664 2.2539 14 6.5312 27.605 12.688 40.379-14.344-4.1484-27.523-11.586-38.492-21.715zm25.805-122.77h-0.003907c-9.8477-4.2852-18.648-10.652-25.805-18.664 10.973-10.133 24.156-17.566 38.5-21.715-6.1602 12.773-10.438 26.375-12.695 40.379zm39.258 148.3c-6.3516 0-16.977-17.379-22.559-49.875 14.844-3.4492 30.273-3.4492 45.117 0-5.582 32.496-16.207 49.875-22.559 49.875zm24.859-67.262c-16.383-3.5352-33.336-3.5352-49.719 0-0.61719-6.3242-1.0312-13.066-1.2422-20.23h52.203c-0.19922 7.1641-0.61328 13.906-1.2422 20.23zm-50.961-37.738c0.19922-7.1562 0.61328-13.898 1.2422-20.223 16.379 3.6289 33.352 3.6289 49.727 0 0.61328 6.3242 1.0234 13.062 1.2344 20.223zm52.676 101.18c6.1562-12.773 10.434-26.379 12.688-40.379 9.8477 4.2852 18.648 10.652 25.805 18.664-10.969 10.129-24.148 17.566-38.492 21.715zm50.285-34.738v0.003907c-9.7344-10.402-21.703-18.461-35-23.574 0.91797-8.2773 1.5039-16.781 1.75-25.375h52.203c-1.625 17.766-8.1914 34.719-18.953 48.949zm18.945-66.445h-52.203c-0.23437-8.5938-0.82422-17.098-1.75-25.375 13.297-5.1133 25.266-13.172 35-23.574 10.762 14.23 17.328 31.184 18.953 48.949zm-30.738-61.969c-7.1602 8.0078-15.961 14.371-25.805 18.664-2.2539-14-6.5312-27.605-12.688-40.379 14.344 4.1484 27.523 11.586 38.492 21.715zm83.684-174.28h52.5v17.5h-52.5zm-8.75 35h103.47c-4.7695 14.078-20.711 26.137-42.219 31.703v-5.4531c0-2.3203-0.92188-4.5469-2.5625-6.1875s-3.8672-2.5625-6.1875-2.5625h-35c-4.832 0-8.75 3.918-8.75 8.75v5.4531c-21.508-5.5664-37.449-17.625-42.219-31.703zm43.75 35v17.5h-17.5v-17.5zm61.25 52.5h-140v-59.324c12.398 10.957 27.504 18.398 43.75 21.551v11.523c0 2.3203 0.92188 4.5469 2.5625 6.1875s3.8672 2.5625 6.1875 2.5625h35c2.3203 0 4.5469-0.92188 6.1875-2.5625s2.5625-3.8672 2.5625-6.1875v-11.523c16.246-3.1523 31.352-10.594 43.75-21.551z"/>
  <use x="70" y="691.25" xlink:href="#o"/>
  <use x="102.109375" y="691.25" xlink:href="#h"/>
  <use x="123.683594" y="691.25" xlink:href="#b"/>
  <use x="153.355469" y="691.25" xlink:href="#d"/>
  <use x="182.878906" y="691.25" xlink:href="#a"/>
  <use x="203.792969" y="691.25" xlink:href="#b"/>
  <use x="233.464844" y="691.25" xlink:href="#g"/>
  <use x="280.011719" y="691.25" xlink:href="#f"/>
  <use x="311.328125" y="691.25" xlink:href="#e"/>
  <use x="355.078125" y="691.25" xlink:href="#c"/>
  <use x="386.589844" y="691.25" xlink:href="#n"/>
  <use x="417.734375" y="691.25" xlink:href="#m"/>
  <use x="463.324219" y="691.25" xlink:href="#l"/>
  <use x="478.320312" y="691.25" xlink:href="#a"/>
  <use x="514.464844" y="691.25" xlink:href="#c"/>
  <use x="545.972656" y="691.25" xlink:href="#d"/>
  <use x="575.496094" y="691.25" xlink:href="#b"/>
  <use x="605.167969" y="691.25" xlink:href="#k"/>
  <use x="636.316406" y="691.25" xlink:href="#j"/>
  <use x="667.632812" y="691.25" xlink:href="#a"/>
  <use x="688.546875" y="691.25" xlink:href="#i"/>
 </g>
</svg>
